<?xml version="1.0" encoding="UTF-8" standalone="no"?>
<!DOCTYPE svg PUBLIC "-//W3C//DTD SVG 1.1//EN" "http://www.w3.org/Graphics/SVG/1.1/DTD/svg11.dtd">
<svg width="100%" height="100%" viewBox="0 0 34 22" version="1.1" xmlns="http://www.w3.org/2000/svg" xmlns:xlink="http://www.w3.org/1999/xlink" xml:space="preserve" xmlns:serif="http://www.serif.com/" style="fill-rule:evenodd;clip-rule:evenodd;stroke-linejoin:round;stroke-miterlimit:2;">
    <g id="Layer-1" serif:id="Layer 1" transform="matrix(1,0,0,1,0,-1030.96)">
        <path id="rect4187" d="M32.56,1031.03L1.174,1031.03C0.556,1031.03 0.048,1031.54 0.048,1032.15L0.048,1051.22C0.049,1051.84 0.557,1052.35 1.175,1052.35L32.559,1052.35C33.177,1052.35 33.686,1051.84 33.686,1051.22L33.686,1032.15C33.686,1031.54 33.178,1031.03 32.56,1031.03ZM2.3,1033.28L31.434,1033.28L31.434,1050.09L2.3,1050.09L2.3,1033.28ZM28.108,1044.34L5.626,1044.34C5.008,1044.34 4.5,1044.85 4.5,1045.47L4.5,1046.35C4.5,1046.96 5.008,1047.47 5.626,1047.47L28.108,1047.47C28.726,1047.47 29.235,1046.96 29.235,1046.35L29.235,1045.47C29.235,1044.85 28.726,1044.34 28.108,1044.34Z" style="fill:white;fill-rule:nonzero;"/>
    </g>
</svg>
