<?xml version="1.0" encoding="UTF-8" standalone="no"?>
<!-- Generator: Adobe Illustrator 19.0.0, SVG Export Plug-In . SVG Version: 6.00 Build 0)  -->

<svg
   xmlns:dc="http://purl.org/dc/elements/1.1/"
   xmlns:cc="http://creativecommons.org/ns#"
   xmlns:rdf="http://www.w3.org/1999/02/22-rdf-syntax-ns#"
   xmlns:svg="http://www.w3.org/2000/svg"
   xmlns="http://www.w3.org/2000/svg"
   xmlns:sodipodi="http://sodipodi.sourceforge.net/DTD/sodipodi-0.dtd"
   xmlns:inkscape="http://www.inkscape.org/namespaces/inkscape"
   version="1.1"
   id="Layer_1"
   x="0px"
   y="0px"
   viewBox="0 0 472.618 472.618"
   style="enable-background:new 0 0 472.618 472.618;"
   xml:space="preserve"
   inkscape:version="0.91 r13725"
   sodipodi:docname="mars.svg"><metadata
     id="metadata43"><rdf:RDF><cc:Work
         rdf:about=""><dc:format>image/svg+xml</dc:format><dc:type
           rdf:resource="http://purl.org/dc/dcmitype/StillImage" /></cc:Work></rdf:RDF></metadata><defs
     id="defs41" /><sodipodi:namedview
     pagecolor="#ffffff"
     bordercolor="#666666"
     borderopacity="1"
     objecttolerance="10"
     gridtolerance="10"
     guidetolerance="10"
     inkscape:pageopacity="0"
     inkscape:pageshadow="2"
     inkscape:window-width="640"
     inkscape:window-height="480"
     id="namedview39"
     showgrid="false"
     inkscape:zoom="0.49934618"
     inkscape:cx="236.30901"
     inkscape:cy="236.30901"
     inkscape:window-x="0"
     inkscape:window-y="0"
     inkscape:window-maximized="0"
     inkscape:current-layer="Layer_1" /><g
     id="g3"
     style="stroke:none;fill:#1e6b86;fill-opacity:0.55276382"><g
       id="g5"
       style="stroke:none;fill:#1e6b86;fill-opacity:0.55276382"><path
         d="M443.609,0.001H293.584V58.02h79.994L271.724,159.873l0.954,0.953c-28.3-20.409-62.942-32.569-100.499-32.569    C77.087,128.257,0,205.345,0,300.437s77.087,172.18,172.18,172.18s172.18-77.088,172.18-172.18    c0-37.558-12.161-72.201-32.572-100.502l0.959,0.959L414.599,99.041v79.994h58.019V29.01V0.001H443.609z M172.183,414.596    c-62.948,0-114.159-51.211-114.159-114.159c0-62.948,51.211-114.159,114.159-114.159s114.158,51.211,114.158,114.159    C286.341,363.386,235.131,414.596,172.183,414.596z"
         id="path7"
         style="stroke:none;fill:#1e6b86;fill-opacity:0.55276382" /></g></g><g
     id="g9" /><g
     id="g11" /><g
     id="g13" /><g
     id="g15" /><g
     id="g17" /><g
     id="g19" /><g
     id="g21" /><g
     id="g23" /><g
     id="g25" /><g
     id="g27" /><g
     id="g29" /><g
     id="g31" /><g
     id="g33" /><g
     id="g35" /><g
     id="g37" /></svg>