<?xml version="1.0" encoding="UTF-8" standalone="no"?>
<!-- Generator: Adobe Illustrator 19.0.0, SVG Export Plug-In . SVG Version: 6.00 Build 0)  -->

<svg
   xmlns:dc="http://purl.org/dc/elements/1.1/"
   xmlns:cc="http://creativecommons.org/ns#"
   xmlns:rdf="http://www.w3.org/1999/02/22-rdf-syntax-ns#"
   xmlns:svg="http://www.w3.org/2000/svg"
   xmlns="http://www.w3.org/2000/svg"
   xmlns:sodipodi="http://sodipodi.sourceforge.net/DTD/sodipodi-0.dtd"
   xmlns:inkscape="http://www.inkscape.org/namespaces/inkscape"
   version="1.1"
   id="Layer_1"
   x="0px"
   y="0px"
   viewBox="0 0 472.618 472.618"
   style="enable-background:new 0 0 472.618 472.618;"
   xml:space="preserve"
   inkscape:version="0.91 r13725"
   sodipodi:docname="venus.svg"><metadata
     id="metadata43"><rdf:RDF><cc:Work
         rdf:about=""><dc:format>image/svg+xml</dc:format><dc:type
           rdf:resource="http://purl.org/dc/dcmitype/StillImage" /></cc:Work></rdf:RDF></metadata><defs
     id="defs41" /><sodipodi:namedview
     pagecolor="#ffffff"
     bordercolor="#666666"
     borderopacity="1"
     objecttolerance="10"
     gridtolerance="10"
     guidetolerance="10"
     inkscape:pageopacity="0"
     inkscape:pageshadow="2"
     inkscape:window-width="1920"
     inkscape:window-height="1137"
     id="namedview39"
     showgrid="false"
     inkscape:zoom="0.49934618"
     inkscape:cx="151.78592"
     inkscape:cy="215.00001"
     inkscape:window-x="-8"
     inkscape:window-y="-8"
     inkscape:window-maximized="1"
     inkscape:current-layer="Layer_1" /><path
     d="M 241.97461 -1.0742188 C 197.90992 -1.0743071 153.84506 15.736969 120.22461 49.357422 C 52.9837 116.59833 52.984407 225.61527 120.22461 292.85547 C 146.78213 319.41299 179.87768 335.31159 214.32227 340.89062 L 212.96484 340.89062 L 212.96484 378.66406 L 176.10156 378.66406 L 176.10156 436.67578 L 212.9668 436.67578 L 212.9668 472.63281 L 270.97852 472.63281 L 270.97852 436.67578 L 307.8457 436.67578 L 307.84375 378.66211 L 270.97852 378.66211 L 270.97852 340.88867 L 269.63086 340.88867 C 304.07333 335.30889 337.1678 319.41228 363.72461 292.85547 C 430.96481 225.61528 430.96286 116.59762 363.72266 49.357422 C 330.10256 15.737323 286.03929 -1.07413 241.97461 -1.0742188 z M 241.97266 57.003906 C 271.20622 57.003906 300.43983 68.13124 322.69531 90.386719 C 367.20626 134.89767 367.20626 207.32107 322.69531 251.83203 C 278.18435 296.34299 205.76096 296.34104 161.25 251.83008 C 116.73833 207.31842 116.73904 134.89767 161.25 90.386719 C 183.50548 68.13124 212.73909 57.003906 241.97266 57.003906 z "
     id="path7"
     style="stroke:none;fill:#b7689a;fill-opacity:1" /><g
     id="g9" /><g
     id="g11" /><g
     id="g13" /><g
     id="g15" /><g
     id="g17" /><g
     id="g19" /><g
     id="g21" /><g
     id="g23" /><g
     id="g25" /><g
     id="g27" /><g
     id="g29" /><g
     id="g31" /><g
     id="g33" /><g
     id="g35" /><g
     id="g37" /></svg>